<?xml version="1.0" encoding="UTF-8" standalone="no"?>
<!-- Created with Inkscape (http://www.inkscape.org/) -->

<svg
   width="297mm"
   height="210mm"
   viewBox="0 0 297 210"
   version="1.1"
   id="svg5"
   inkscape:version="1.1.2 (08b2f3d93c, 2022-04-05)"
   sodipodi:docname="maountain_01.svg"
   xmlns:inkscape="http://www.inkscape.org/namespaces/inkscape"
   xmlns:sodipodi="http://sodipodi.sourceforge.net/DTD/sodipodi-0.dtd"
   xmlns="http://www.w3.org/2000/svg"
   xmlns:svg="http://www.w3.org/2000/svg">
  <sodipodi:namedview
     id="namedview7"
     pagecolor="#505050"
     bordercolor="#ffffff"
     borderopacity="1"
     inkscape:pageshadow="0"
     inkscape:pageopacity="0"
     inkscape:pagecheckerboard="1"
     inkscape:document-units="mm"
     showgrid="false"
     inkscape:zoom="0.69664703"
     inkscape:cx="508.1483"
     inkscape:cy="330.87057"
     inkscape:window-width="1920"
     inkscape:window-height="1016"
     inkscape:window-x="0"
     inkscape:window-y="0"
     inkscape:window-maximized="1"
     inkscape:current-layer="layer1" />
  <defs
     id="defs2" />
  <g
     inkscape:label="Layer 1"
     inkscape:groupmode="layer"
     id="layer1">
    <path
       style="fill:none;stroke:#000000;stroke-width:1.2;stroke-linecap:butt;stroke-linejoin:miter;stroke-opacity:1;stroke-miterlimit:4;stroke-dasharray:none"
       d="m 0.60678247,190.94213 c 3.61566713,-2.11869 5.44977763,-5.71917 8.00092393,-8.78128 1.2028117,-1.44372 1.3151223,-1.17475 2.7861556,-2.39746 1.399208,-1.16301 2.419931,-2.90004 3.927025,-3.90477 0.237011,-0.15801 0.56249,-0.18147 0.764041,-0.38276 0.2003,-0.20004 0.178859,-0.5602 0.379796,-0.75959 2.844363,-2.82261 -0.208321,0.95818 1.931615,-1.53996 3.075988,-3.59087 6.168918,-7.16916 8.987501,-10.96955 1.659848,-2.23803 2.954951,-4.88636 4.692552,-7.06034 3.714139,-4.64692 8.657106,-8.17559 12.229113,-12.93827 1.003631,-1.33817 1.512599,-3.09025 2.430098,-4.48188 1.02254,-1.55095 2.938475,-3.11578 3.85433,-4.63617 0.523463,-0.869 0.832388,-1.85445 1.342636,-2.73127 1.428483,-2.45472 3.186126,-4.61206 4.731123,-6.94907 1.747147,-2.64278 3.114003,-5.57664 5.391314,-7.84218 2.066883,-2.05619 4.89353,-3.61056 6.719115,-5.89869 3.117578,-3.90749 6.079906,-8.24603 9.647693,-11.754373 2.946307,-2.897219 2.243362,-1.419291 4.56793,-4.109506 0.908373,-1.051258 1.380686,-2.575713 2.363335,-3.557614 0.332008,-0.331755 0.841868,-0.446767 1.172025,-0.780362 1.198542,-1.211008 2.156394,-2.852943 3.295023,-4.137691 2.205498,-2.488534 4.991719,-4.639715 7.591457,-6.664225 3.297316,-2.567733 6.162976,-6.162974 9.122506,-9.122505 1.3035,-1.303501 3.16945,-2.650807 4.18369,-4.183684 2.06266,-3.117435 3.92439,-6.128758 6.36898,-8.999371 3.46323,-4.066773 7.584,-7.842737 11.65201,-11.209898 2.91577,-2.413431 5.17751,-5.613376 8.06323,-8.063235 1.2938,-1.098381 6.13311,-5.360141 6.13311,-6.702796 1.28774,-2.815925 3.58234,-4.596578 5.46104,-6.472839 1.07805,-0.01703 0.099,-0.849104 0.3798,-1.130485 0.38306,-0.383846 0.9947,-0.43976 1.45835,-0.721018 0.92328,-0.56008 1.48405,-1.39127 2.34257,-1.952386 1.80881,-1.182216 4.38768,-2.266497 6.46394,-2.799507 1.43256,-0.367762 4.68348,3.199707 6.58114,2.83363 2.85111,-0.550009 11.18938,-2.860084 13.42042,-1.824799 1.1676,0.541808 2.71532,6.73636 3.32915,8.270935 0.91935,2.298384 2.13969,5.659327 3.41667,7.581072 0.58016,0.873085 1.24692,1.575631 1.51918,2.668953 0.50767,2.038591 1.15547,3.572171 1.82184,5.542639 0.59017,1.745164 0.2131,-0.407186 1.14087,1.900461 0.23734,0.59035 0.16233,1.235845 0.37237,1.836667 0.27229,0.77887 2.13106,3.293071 2.69418,3.849879 1.80744,1.787181 4.34296,2.591314 6.43278,3.990819 0.67785,0.453942 0.82764,1.375292 1.51622,1.891559 1.72998,1.297068 7.37148,6.916883 8.76199,8.7709 1.08751,1.450013 1.9523,3.110445 3.03985,4.560512 1.65415,2.205527 3.99651,3.957181 5.72215,6.113815 1.20985,1.512009 1.95165,3.519093 3.117,5.069379 0.91342,1.21515 2.09887,2.237879 3.04281,3.422609 1.76544,2.215792 2.21134,5.129803 4.00565,7.288808 3.01786,3.631223 6.6677,6.889043 9.41626,10.583827 0.71631,0.96291 1.40236,2.68659 2.03547,3.63625 0.39724,0.59587 1.11319,0.92923 1.51918,1.51918 0.134,0.19473 -0.13232,0.51326 0,0.70915 1.13365,1.67833 2.30802,3.27497 3.45821,5.0041 3.0111,4.52671 7.3427,8.04752 10.72477,12.2751 0.61855,0.77319 3.61807,7.23437 3.88104,8.1211 0.10896,0.36744 -0.10684,0.7817 0,1.14977 0.34555,1.19046 1.16468,2.19177 1.65418,3.33063 0.48892,1.13749 0.77531,2.3274 1.14236,3.42854 0.69112,2.07339 2.94996,5.26216 4.32907,7.09446 0.73281,0.97362 1.92741,1.30389 2.65857,2.27877 0.76994,1.02659 -0.008,0.62341 0.75959,1.9064 0.18456,0.30848 0.50837,0.50837 0.76256,0.76255 0.27644,0.57563 0.51563,1.17068 0.82932,1.72689 2.63728,4.67625 -0.68058,-1.42458 1.60967,1.99986 0.47901,0.71622 0.6434,1.62046 1.16016,2.30992 1.93649,2.58367 3.64553,5.18117 5.32455,7.98461 0.3857,0.64399 0.74358,1.30567 1.16016,1.93013 0.46782,0.70127 1.5096,1.13505 1.88414,1.88414 0.14692,0.29383 1.43369,4.50543 1.52067,4.94031 0.14467,0.72334 -0.17968,1.56426 0,2.27877 -0.68959,1.58231 0.59542,0.4327 0.75069,0.75069 0.11109,0.22752 0,0.5064 0,0.75959 0.12659,0.3798 0.20061,0.78138 0.37979,1.13939 1.06148,2.12088 1.45994,4.06964 2.65264,6.45504 0.78159,1.56319 3.12841,2.69698 4.16143,3.83949 0.83825,0.9271 1.91452,3.93148 3.5131,3.93148 -0.72843,0.23292 -1.4306,0.57508 -2.1853,0.69876 -2.995,0.49083 -6.27198,-0.28895 -9.21894,-0.49551 -3.93897,-0.2761 -8.0222,0 -11.97394,0 -4.28871,0 -8.76922,-0.34388 -13.05992,0 -3.73247,0.29914 -7.41317,1.18577 -11.14907,1.43907 -2.94684,0.19979 -6.20978,-0.48719 -9.1329,0 -3.52866,0.58811 2.16071,0.31867 -3.15408,0.78777 -6.62408,0.58467 -14.15016,0 -20.85907,0 -12.00065,0 -24.00129,0 -36.00194,0 -3.35678,0 -7.26213,-0.51818 -10.57047,0 -1.15249,0.18052 -2.21623,0.76122 -3.36624,0.95691 -2.90356,0.49408 -7.59839,0.97855 -10.66691,0.46288 -0.96495,-0.16217 -1.82248,-0.75089 -2.78467,-0.92872 -0.7343,-0.13572 -1.49703,0.0729 -2.2402,0 -9.73923,-0.95489 -19.61703,0.22667 -29.39408,-0.43172 -2.88098,-0.19401 -0.58588,-0.41468 -2.87963,-1.23137 -1.39051,-0.4951 -2.87652,-0.71481 -4.34687,-0.84416 -2.52222,-0.22187 -5.15989,-0.0952 -7.66564,-0.4332 -1.47437,-0.1989 -2.88658,-0.74525 -4.35874,-0.95987 -2.546879,-0.3713 -5.105237,-0.16363 -7.671574,-0.40947 -0.760961,-0.0729 -1.484943,-0.39242 -2.246134,-0.46288 -2.572088,-0.23805 -5.050488,-0.0307 -7.621129,-0.38424 -2.886159,-0.39698 -5.946189,0.25312 -8.848045,0 -1.826028,-0.15928 -3.623103,-0.60728 -5.425437,-0.83971 -2.025744,-0.26123 -4.355492,0 -6.383827,0 -3.452787,0 -7.055806,-0.27894 -10.359809,0.3798 -2.095283,0.41775 -4.485427,0.0457 -6.585593,0.43469 -0.931832,0.17258 -1.764784,0.72932 -2.697141,0.89904 -1.833646,0.3338 -3.97825,-0.45229 -5.787429,0 -2.595512,0.64888 -5.215028,1.49601 -7.934163,1.76991 -1.581514,0.15931 -2.36992,0.0287 -3.740095,0.35012 -1.380854,0.32394 -3.867667,0.92817 -5.351257,0.42431 -1.108941,-0.37662 -3.29906,-1.12153 -3.980434,-1.82183 -0.143117,-0.1471 -0.414583,0.0409 -0.615684,0 -1.262836,-0.25714 -1.919183,-0.75211 -3.05765,-1.14384 -0.366412,-0.12608 -4.2312939,-0.38128 -5.0397066,-0.38128 -1.2418596,0 -4.0884149,0.29044 -4.9640445,0 -0.9143617,-0.30329 -1.3859742,-1.55218 -2.33811543,-1.6987 -0.21827446,-0.0336 -3.58982327,1.54915 -4.64062497,0.32788 -0.1146828,-0.13329 0.3791009,-0.0824 0.4747442,-0.22996 0.3186385,-0.49156 -0.4210834,-0.37534 0.3486403,-0.37534"
       id="path857" />
    <path
       style="fill:none;stroke:#000000;stroke-width:1.2;stroke-linecap:butt;stroke-linejoin:miter;stroke-opacity:1;stroke-miterlimit:4;stroke-dasharray:none"
       d="m 117.95021,56.455992 c 4.15249,3.108108 9.5543,4.2945 14.25271,6.465422 0.71508,0.330406 1.32109,0.866185 2.02953,1.210598 0.40255,0.195702 0.92619,0.05175 1.31445,0.274463 1.05132,0.603067 1.71953,1.962822 2.69269,2.692688 4.89252,3.66939 7.05474,7.221728 14.21711,6.446137 4.43497,-0.480248 9.53672,-2.212161 13.4679,-4.177747 0.67088,-0.335442 0.97703,-1.160151 1.59039,-1.591879 0.53966,-0.379849 1.2298,-0.507111 1.77139,-0.884211 2.71934,-1.893454 4.38766,-4.559673 7.84811,-5.429888 3.40846,-0.857133 5.84667,6.416056 11.83449,3.415191 0.86325,-0.432628 1.48162,-1.360003 2.41823,-1.594842 0.36695,-0.09201 0.77561,0.118364 1.13493,0 0.11837,-0.03899 -0.11181,-0.318831 0,-0.373861 0.22717,-0.11181 0.51395,0.06141 0.75959,0 1.20495,-0.301239 2.15778,-1.264518 3.41816,-1.519182 1.22355,-0.247221 2.50639,0.01307 3.68965,-0.379796 1.05628,-0.3507 3.29379,-1.977814 4.04571,-1.229884"
       id="path859" />
    <path
       style="fill:#000000;stroke-width:6.51038;stroke-miterlimit:4;stroke-dasharray:none"
       d="m 442.77097,214.2461 c -12.5202,17.47344 -23.79935,35.95375 -39.9315,50.47381 -18.75595,20.02855 -39.68176,37.77423 -59.74236,56.40813 -7.74002,8.6707 -15.31599,17.48099 -23.09613,26.07915 -11.91166,16.92605 -29.26959,29.21925 -41.64921,45.98616 -12.43202,16.49816 -26.83378,31.14382 -42.34244,44.77027 -18.65425,22.05702 -32.23533,48.12623 -48.48442,71.66218 -11.65285,11.74457 -16.56612,28.28084 -28.69212,39.50563 -18.98439,19.51242 -38.74333,38.69604 -53.11876,62.10638 -15.772604,22.14165 -33.125687,43.17238 -53.61739,61.06172 -11.128742,10.08177 -22.047507,20.36006 -30.652307,32.79054 -3.847897,6.51067 -12.6766793,10.68152 -14.0091652,18.2912 4.8172292,4.53486 13.4257712,2.18403 19.5899012,3.52688 16.540547,-0.43847 32.555257,3.93347 47.298573,11.20326 14.123564,3.20402 28.809188,-1.35192 42.990958,-2.63379 15.20615,-3.28499 30.13205,-6.49851 45.7264,-6.61811 31.73909,-5.54974 64.26286,-5.42649 96.36561,-5.31003 47.96223,4.4504 96.62392,3.12575 144.20077,11.21443 15.93531,2.19132 32.94948,0.57763 47.52955,8.21737 31.78498,3.11356 63.92207,0.98701 95.83819,2.08566 13.14888,-0.0136 26.33239,0.40771 39.10507,3.59726 17.19595,1.37958 34.69704,0.5086 51.39013,-3.8101 64.58196,-2.2474 129.38083,-0.23944 194.04608,-0.76336 26.2716,-0.56743 52.93601,1.26434 78.88265,-2.74415 20.45129,-0.0845 41.05881,-1.18209 61.25008,-4.39025 46.69537,-2.03805 93.58877,-0.92127 140.25887,0.77659 4.0773,-2.27682 -2.0238,-7.86803 -3.4456,-10.67333 -6.6257,-9.8334 -19.1258,-14.8446 -22.0857,-27.20106 -2.8628,-9.26962 -8.346,-17.56748 -11.3501,-26.63943 0.2996,-14.45365 -5.4296,-28.29737 -14.9235,-38.98587 -14.1464,-21.50764 -29.1704,-42.59319 -41.7206,-64.9691 -13.8428,-13.67586 -25.13247,-29.93753 -30.66869,-48.79118 -7.96877,-17.17721 -11.92769,-36.41943 -24.18392,-51.42098 -17.60609,-20.93525 -37.77232,-40.39619 -51.02566,-64.47176 -2.21196,-4.23825 -6.86291,-7.30669 -8.52017,-12.28821 -14.41443,-24.15554 -39.43444,-40.5981 -50.40045,-67.01183 -7.64078,-12.80124 -18.23003,-23.36945 -25.75955,-36.26186 -11.54204,-14.72379 -25.0525,-27.81647 -35.38568,-43.50609 -6.07725,-6.44144 -10.98958,-15.36827 -18.9202,-19.42369 -9.37931,2.54186 -18.43449,6.58014 -28.27485,7.50307 -8.40658,2.13001 -15.95303,6.66702 -24.36568,8.60365 -8.58916,7.05262 -21.46719,9.63043 -30.66867,2.20925 -7.53927,-4.42934 -15.91865,-14.7574 -25.38386,-8.67156 -11.81734,6.06351 -20.66747,16.42242 -31.95273,23.19424 -17.23805,13.32351 -39.86967,18.22319 -61.03454,19.87758 -11.40425,1.47685 -22.79419,-1.86579 -31.41835,-9.58011 -11.04836,-7.37511 -20.30283,-17.20186 -30.68997,-25.20425 -9.97224,-3.29179 -19.12551,-9.33751 -29.32573,-12.47886 -12.48888,-5.02372 -25.05322,-10.14725 -36.30392,-17.57301 z"
       id="path978"
       transform="scale(0.26458333)" />
    <path
       style="fill:#ffffff;stroke-width:6.51038;stroke-miterlimit:4;stroke-dasharray:none"
       d="m 600.28045,67.233317 c -12.90379,4.047763 -25.77649,10.683409 -35.4376,20.202797 -7.89144,9.999124 -18.38414,18.300816 -24.59044,29.796746 -26.72413,32.65608 -60.5276,58.46737 -89.71545,88.72577 -4.29908,3.45825 -2.49938,9.26365 2.60455,10.76586 18.36722,9.25872 38.10256,15.68161 56.57681,24.62689 11.47072,5.88738 19.33571,17.43869 30.24251,24.4839 10.25562,8.72805 23.79446,13.3635 37.18706,10.24999 21.02766,-3.16933 42.63495,-9.11412 59.04397,-23.21387 12.69903,-6.07241 20.97309,-21.92912 36.36561,-21.29621 13.2195,2.2055 22.44268,19.45297 37.01603,13.63115 7.56471,-3.15738 14.02749,-8.56089 22.37031,-10.06117 11.34118,-5.77032 24.60691,-4.34746 35.69907,-10.82712 5.71777,-4.37457 -7.4512,-10.66579 -10.38282,-15.3932 -10.74339,-10.55466 -27.23613,-14.4536 -34.54324,-28.62203 -4.30035,-6.93236 -5.76687,-14.97215 -9.80704,-22.09243 -4.55408,-15.58922 -12.64439,-29.60197 -19.37285,-44.24983 -6.19799,-14.072847 -10.27937,-29.472599 -16.68435,-43.186286 -18.34335,-2.51349 -36.03034,5.000571 -53.96102,6.254849 -7.95453,-2.15359 -14.26081,-9.132665 -22.61111,-9.795806 z"
       id="path1226"
       transform="scale(0.26458333)" />
  </g>
</svg>
