<?xml version="1.0" encoding="UTF-8" standalone="no"?>
<!-- Created with Inkscape (http://www.inkscape.org/) -->

<svg
   width="297mm"
   height="210mm"
   viewBox="0 0 297 210"
   version="1.1"
   id="svg5"
   inkscape:version="1.1.2 (08b2f3d93c, 2022-04-05)"
   sodipodi:docname="mountain_big.svg"
   xmlns:inkscape="http://www.inkscape.org/namespaces/inkscape"
   xmlns:sodipodi="http://sodipodi.sourceforge.net/DTD/sodipodi-0.dtd"
   xmlns="http://www.w3.org/2000/svg"
   xmlns:svg="http://www.w3.org/2000/svg">
  <sodipodi:namedview
     id="namedview7"
     pagecolor="#505050"
     bordercolor="#ffffff"
     borderopacity="1"
     inkscape:pageshadow="0"
     inkscape:pageopacity="0"
     inkscape:pagecheckerboard="1"
     inkscape:document-units="mm"
     showgrid="false"
     inkscape:zoom="0.69664703"
     inkscape:cx="364.60358"
     inkscape:cy="389.72391"
     inkscape:window-width="1920"
     inkscape:window-height="1016"
     inkscape:window-x="0"
     inkscape:window-y="0"
     inkscape:window-maximized="1"
     inkscape:current-layer="layer1" />
  <defs
     id="defs2" />
  <g
     inkscape:label="Layer 1"
     inkscape:groupmode="layer"
     id="layer1">
    <path
       style="fill:none;stroke:#000000;stroke-width:1.2;stroke-linecap:butt;stroke-linejoin:miter;stroke-opacity:1;stroke-miterlimit:4;stroke-dasharray:none"
       d="m 0.62161824,197.51141 c 4.05462726,-4.56313 7.14004066,-9.76198 11.04225376,-14.43816 0.684409,-0.82016 1.652699,-1.43989 2.293609,-2.29361 0.555902,-0.74048 0.87633,-2.03047 1.520665,-2.66154 0.811514,-0.79479 1.890791,-1.26439 2.777254,-1.97463 1.305077,-1.04565 3.445844,-4.31657 4.636174,-5.8082 0.943797,-1.1827 2.122306,-1.74245 3.042814,-3.04282 0.683595,-0.96569 1.198865,-2.8216 1.680891,-3.79944 1.191805,-2.41769 3.142986,-4.61396 4.738542,-6.74136 1.082582,-1.44345 1.611024,-3.29367 2.766867,-4.74151 1.913755,-2.39723 5.215078,-5.69496 7.618161,-7.61668 0.788551,-0.63059 1.609561,-1.05956 2.278774,-1.89898 1.110139,-1.39248 1.537608,-3.49924 2.77577,-4.75189 0.397627,-0.40228 1.255896,-0.7796 1.747653,-1.37676 4.294137,-5.21454 -1.429909,1.6348 2.069586,-3.32172 1.920373,-2.71993 5.57202,-4.43244 7.281392,-7.28139 0.205973,-0.34329 0.173821,-0.7961 0.379793,-1.13939 1.054182,-1.75697 2.865493,-2.97941 4.17775,-4.55754 1.111776,-1.33704 2.251385,-3.02285 3.452281,-4.22374 2.097053,-2.09706 4.664244,-3.80798 6.917914,-5.74589 1.800085,-1.54788 3.484444,-3.12551 5.544122,-4.3632 1.04974,-0.6308 4.45798,-1.93133 5.51742,-2.98941 2.76602,-2.762452 5.238361,-6.247388 8.362915,-8.742707 3.091429,-2.468864 6.872231,-4.01365 9.383621,-7.165671 0.28922,-0.363006 0.51331,-0.773438 0.76997,-1.160156 0.52766,-0.792231 0.98482,-1.636241 1.58298,-2.376688 0.82844,-1.025517 1.65078,-2.061655 2.574,-3.002759 0.32839,-0.334753 0.87346,-0.417528 1.17054,-0.780359 0.39371,-0.480838 0.48872,-1.150681 0.83377,-1.667539 0.48689,-0.729306 1.16151,-1.320906 1.64826,-2.050302 1.01836,-1.526034 1.6382,-3.346997 2.7995,-4.796401 1.67478,-2.090261 4.16242,-3.744645 5.66726,-6.0248 0.98937,-1.499108 1.34319,-3.614058 2.48351,-4.996683 0.30884,-0.374473 0.83437,-0.501449 1.21504,-0.802616 1.53649,-1.215565 2.62525,-3.018986 4.19259,-4.192585 0.45444,-0.340273 1.1222,-0.35964 1.52363,-0.761074 1.55441,-1.554411 2.60541,-3.747828 4.1911,-5.33197 1.93524,-1.933356 -0.52255,1.582928 1.51919,-1.139386 0.35315,-0.470868 0.81878,-1.559385 1.14235,-1.860405 0.86259,-0.802494 3.53061,-3.294422 4.1644,-4.561996 0.59145,-0.96284 0.95301,-2.112464 1.77435,-2.888521 1.25271,-1.183627 4.23071,-1.602525 5.84974,-2.253552 1.00231,-0.403035 1.50338,-1.530208 2.55324,-1.792159 2.92564,-0.729984 5.94675,-1.872504 8.95338,-2.864785 0.48694,-0.160706 1.76245,-0.744983 2.3574,-0.379796 0.9656,0.592697 2.17749,0.614048 3.14073,1.166091 1.44897,0.830423 0.88342,0.955996 1.55034,1.931616 0.99965,1.462388 3.96268,4.3699 5.59011,5.183613 0.62041,0.310208 1.6474,0.435159 2.23575,0.738821 1.11061,0.573221 2.1829,1.475477 3.34843,2.05772 0.61079,0.305123 1.39599,0.303961 1.90046,0.764041 0.78623,0.717046 2.32281,2.424525 3.03243,3.370684 0.72928,0.972379 0.099,0.96195 0.75959,2.289158 0.76014,1.527208 0.75727,-0.0093 1.13939,1.519181 0.0614,0.245637 -0.11324,0.533125 0,0.759591 0.99337,1.98674 3.98194,3.532747 5.32158,5.320103 0.0129,0.01723 0.74848,1.506038 0.76256,1.523632 1.4969,1.870758 2.75521,3.798735 4.1822,5.701382 0.53753,0.716708 1.341,1.200731 1.90046,1.90046 1.28623,1.608731 1.94981,3.68742 3.08287,5.38538 1.3371,2.003719 2.7873,3.982857 4.27567,5.858641 0.45469,0.573056 1.17552,0.924491 1.55182,1.55182 0.20794,0.346665 0.17723,0.803438 0.38573,1.149772 0.96829,1.608438 2.65086,2.734257 3.81279,4.192585 0.7993,1.003197 1.49811,2.067737 2.29954,3.069518 1.96925,2.461565 5.09593,4.226166 6.84225,6.842251 0.58457,0.875721 1.40647,1.963863 2.28026,2.660052 1.50607,1.199969 3.26502,2.495051 4.5976,3.827625 0.71773,0.717733 0.56661,1.899313 1.13938,2.664503 0.90674,1.21135 2.13552,2.21465 3.03985,3.41964 0.60143,0.80139 0.93589,1.88085 1.53698,2.68231 0.42969,0.57292 1.0895,0.94626 1.51919,1.51918 0.94182,1.25576 1.34981,2.94004 2.28174,4.1822 0.81364,1.0845 1.46549,2.33477 2.28025,3.42112 0.42969,0.57292 1.08994,0.94593 1.51918,1.51919 0.76109,1.01643 0.77492,2.43831 1.52364,3.43596 0.75087,1.00052 0.99099,0.57034 1.52363,1.90194 0.38543,0.96358 0.43394,2.09716 1.13938,3.03836 0.0278,0.0371 1.49289,1.48706 1.52215,1.52364 1.27238,1.59015 2.18476,3.39642 3.45822,4.99223 1.21651,1.52444 2.9143,2.72776 4.19258,4.19258 2.63516,3.01972 -0.45361,-0.22007 1.16016,1.93162 1.25541,1.67388 4.91385,4.51058 5.69693,6.07673 0.33548,0.67096 0.21142,1.54787 0.75959,2.27877 1.19052,1.58736 3.14241,2.76113 4.562,4.18071 0.95476,0.95477 3.35997,3.94507 4.18516,4.56497 1.84956,1.38942 -0.32915,-0.62486 1.52512,0.76404 1.37858,1.0326 3.13458,2.78623 4.18368,4.18368 0.63351,0.84386 1.37638,1.87467 1.89898,2.65857 1.1679,1.75186 3.29256,2.8709 4.55754,4.55755 1.09761,1.46347 2.78197,2.65972 3.79796,4.17774 0.0696,0.10398 -0.0885,0.28688 0,0.37535 0.19923,0.19923 0.5563,0.18017 0.75514,0.37979 0.39955,0.40113 0.41989,1.06625 0.75959,1.51919 0.82878,1.10503 1.805,2.17662 2.56065,3.32172 0.5782,0.87619 0.80082,1.9595 1.56962,2.7283 0.32277,0.32276 0.85203,0.40494 1.13939,0.75959 0.38685,0.47743 0.38246,1.23665 0.61865,1.71501 0.19919,0.40342 0.80676,0.60459 1.00735,1.00735 0.69391,1.39326 1.03265,3.0564 1.51621,4.5071 0.22714,0.68142 0.50575,0.49937 0.75959,1.48655 0.049,0.19058 1.2715,0.89407 1.36638,0.98212 -3.02555,2.17916 -6.24473,1.50369 -9.66995,1.79068 -0.57623,0.0483 -1.10729,0.3507 -1.67941,0.43469 -1.58579,0.23278 -10.79432,0.35931 -12.95161,0 -3.02487,-0.50382 0.68824,-0.38277 -2.29955,-0.38277 -3.87369,0 -10.45324,0.59051 -13.98715,0 -1.31007,-0.2189 -2.47051,-1.0041 -3.81872,-1.14383 -2.72963,-0.28291 -5.55171,0.21141 -8.28726,0 -0.96403,-0.0745 -1.89563,-0.40663 -2.85885,-0.49107 -1.45869,-0.12786 -2.93896,0.1741 -4.39286,0 -1.26312,-0.15124 -2.29296,-0.9124 -3.4686,-1.1468 -1.69546,-0.33804 -9.95032,-0.25656 -11.23216,0 -5.09472,1.01974 -8.80815,2.83551 -14.41294,3.31876 -6.12077,0.52774 -12.40582,-0.64007 -18.51354,0 -0.77145,0.0808 -1.52116,0.30463 -2.28174,0.45694 -0.82536,0.13501 -1.64368,0.32403 -2.47608,0.40502 -1.78277,0.17344 -3.61516,-0.16525 -5.39874,0 -3.66077,0.33916 -7.28618,0.75218 -10.89389,0.0267 -2.2845,-0.45939 -4.91868,0.22749 -7.23244,0 -1.74354,-0.17143 -3.14111,-1.18213 -4.74447,-1.58297 -1.86898,-0.46725 -3.92956,-0.84833 -5.826,-1.16461 -2.37024,-0.39529 -5.28212,0.3344 -7.53508,0.49106 -2.48766,0.17299 -5.36645,-0.4884 -7.81993,0 -3.48064,0.69288 -7.30742,0.3798 -10.94286,0.3798 -1.6666,0 -3.39097,-0.0627 -5.00855,-0.38573 -0.2789,-0.0557 -0.50837,-0.25518 -0.76256,-0.38276 -0.6948,-0.1449 -1.37836,-0.36236 -2.08442,-0.43469 -1.27563,-0.13069 -2.57371,0.15247 -3.84691,0 -1.55762,-0.18653 -3.06927,-0.67096 -4.62579,-0.86641 -3.48977,-0.43821 -7.16356,0.25401 -10.669879,0 -1.868261,-0.13534 -3.735825,-0.28332 -5.600498,-0.46139 -1.430177,-0.13658 -2.014002,-1.08054 -3.461182,-0.79223 -2.846683,0.56712 0.856065,0.2626 -2.753517,0.78481 -1.328563,0.19221 -2.901118,-0.32579 -4.20297,0 -0.169611,0.0424 -0.204496,0.31722 -0.370894,0.37089 -0.958614,0.30923 -2.152368,0.24258 -3.151115,0.3887 -2.076725,0.30383 -4.151695,1.20226 -6.18206,1.65864 -1.671399,0.37569 -3.636444,0.0824 -5.247408,0.49106 -2.408849,0.61103 -0.764385,0.88999 -4.880964,1.76546 -1.80812,0.38453 -3.71216,0.10793 -5.52632,0.46287 -3.112382,0.60895 -6.129865,1.89136 -9.242677,2.40488 -1.694796,0.27959 -3.496576,0.47485 -5.185097,0.80558 -1.617912,0.3169 -3.020036,1.01749 -4.765246,1.19131 -2.307618,0.22984 -4.570286,0.15405 -6.865988,0.38425 -3.47058,0.34801 -6.756791,1.52358 -10.217387,0.4154 -1.207957,-0.38682 -5.654965,-3.44001 -6.392727,-4.17923 -0.591684,-0.59286 -1.113139,-1.62378 -2.173439,-1.8337 -1.2183048,-0.24121 -4.5005141,-1.0131 -5.8304528,-0.3798 -0.3807932,0.18133 -0.3543017,0.81863 -0.7076656,1.04889 -1.1447152,0.74591 -2.2389286,0.81315 -3.54129536,1.09933 z"
       id="path1362" />
    <path
       style="fill:none;stroke:#000000;stroke-width:1.2;stroke-linecap:butt;stroke-linejoin:miter;stroke-opacity:1;stroke-miterlimit:4;stroke-dasharray:none"
       d="m 105.53713,81.691614 c 1.45295,1.591762 3.28472,3.224665 5.30675,4.091702 2.94221,1.26161 9.76022,0.255764 12.59556,-0.513316 1.40703,-0.381653 2.95778,-1.466212 4.45666,-1.643803 3.01952,-0.357756 6.10189,-0.461391 9.15366,-0.461391 0.97779,0 2.5747,-0.246732 3.56355,0 1.50457,0.375409 2.93629,1.746213 4.35281,2.358885 4.00979,1.734309 8.85914,0.768331 13.0347,1.222467 1.62193,0.176401 2.97364,0.69052 4.7148,0.434687 1.16977,-0.171876 2.49614,-0.841605 3.48937,-1.170541 0.60512,-0.200403 1.28357,0.10486 1.91233,0 2.90596,-0.48464 5.68761,-0.995013 8.65963,-1.240268 1.47467,-0.121693 4.2322,-0.123582 5.49962,1.143836 0.20017,0.20017 0.14425,0.602564 0.37979,0.759589 0.73288,0.488585 3.6779,0.460373 4.57535,0.379797 7.22893,-0.649045 1.08997,-0.185981 6.76362,-0.924267 0.51197,-0.06662 1.05926,0.163838 1.54886,0 1.73502,-0.580612 4.42499,-2.836381 6.1598,-3.909224 0.54388,-0.336341 0.8993,-1.294752 1.49248,-1.492477 0.2402,-0.08007 0.51984,0.0814 0.75959,0 0.6651,-0.225817 0.0962,-0.798809 0.73882,-1.120098 0.42799,-0.213998 1.08817,-0.18012 1.4999,-0.379796 0.20359,-0.09874 0.15915,-0.460185 0.35012,-0.581562"
       id="path1366" />
    <path
       style="fill:#ffffff;stroke-width:28.05543342;stroke-miterlimit:4;stroke-dasharray:none"
       d="m 607.59507,118.64868 c -18.36141,5.88077 -36.77946,11.90731 -53.83768,20.92332 -9.06643,2.06563 -18.707,5.95646 -22.17654,15.43387 -12.65473,17.9675 -29.53917,32.53927 -42.5083,50.31354 -14.31476,10.1734 -27.54812,22.86775 -35.23294,38.96454 -9.753,13.92315 -23.83391,24.67155 -31.18172,40.37475 -6.22711,8.49373 -10.79681,18.05351 -19.66004,24.32427 -0.94857,4.59707 7.03751,7.47154 10.32683,10.74326 12.91696,8.01557 29.1385,4.3289 43.39143,3.1877 13.75557,-3.12746 26.73595,-10.0511 41.27637,-9.00088 11.99404,0.37611 24.77376,-2.51535 36.22986,0.29284 10.48878,4.91141 20.07789,13.26346 32.41088,11.3209 15.17021,0.67868 30.83377,0.80491 45.57097,3.2607 10.94856,-3.6452 22.12007,-6.1502 33.68352,-6.71714 14.12704,-1.4394 30.05305,-6.59149 43.183,0.95853 4.63457,8.20869 15.72719,2.967 23.14518,3.69036 16.37275,-0.47417 33.83376,-2.96375 46.08639,-14.93846 4.75344,-5.39686 13.3135,-8.03918 16.3822,-14.56753 -9.04843,-13.2928 -20.81662,-24.98338 -27.42489,-39.96822 -8.98389,-13.77284 -20.2033,-25.83499 -29.53039,-39.41032 -7.2725,-10.47462 -19.46332,-17.65478 -23.94282,-29.82197 -4.68346,-4.83124 -4.40886,-12.36018 -9.81543,-16.95061 -6.42019,-9.40898 -18.11333,-11.8144 -27.16416,-17.83656 -14.18213,-4.87692 -24.55293,-17.00394 -33.39656,-28.54633 -4.53844,-3.42791 -10.52162,-4.49498 -15.81516,-6.03056 z"
       id="path1524"
       transform="scale(0.26458333)" />
    <path
       style="fill:#000000;stroke-width:8.77984263;stroke-miterlimit:4;stroke-dasharray:none"
       d="m 775.32931,301.93454 c -3.01347,2.27364 -4.59775,6.23226 -8.83417,7.28657 -12.11367,9.00673 -24.63329,19.17205 -40.54186,19.02091 -11.57021,0.11689 -23.78518,3.21531 -35.10788,0.53426 -11.05563,-11.89447 -28.86861,-5.44023 -42.72979,-4.33718 -12.4414,0.64868 -24.35238,4.15544 -36.47493,6.43147 -19.11602,-2.12802 -39.46423,-1.90158 -58.64122,-4.02068 -10.93172,-4.40699 -20.64414,-14.39087 -33.2373,-11.4075 -17.61726,0.70772 -35.88116,-0.0677 -52.29643,7.44395 -17.32876,4.36698 -37.24707,8.44399 -53.95321,-0.19109 -5.27067,-1.40156 -8.4228,-10.4262 -14.39373,-7.64824 -7.46079,9.78383 -14.87544,20.05383 -25.44554,26.95388 -19.15181,11.96414 -34.76377,28.44088 -50.29392,44.66148 -10.55816,9.80913 -25.07446,13.79751 -35.50488,23.92318 -17.74068,13.91143 -35.45458,28.1427 -49.18224,46.18211 -10.47905,9.65441 -16.26961,22.97081 -27.4141,31.97424 -8.36311,7.02958 -15.31058,15.47241 -20.98043,24.58466 -8.4266,7.57477 -13.88965,17.45483 -20.357,26.52774 -15.96758,14.89857 -33.84176,28.86753 -44.03216,48.65429 -9.83968,14.12042 -19.72293,28.38885 -27.333672,43.74141 -8.421825,10.39285 -17.197257,20.67039 -25.910942,30.78361 -6.176029,6.39735 -14.257345,10.96512 -18.222716,19.20665 -16.150417,18.71816 -31.019989,38.6073 -45.1388194,58.84579 -1.3098846,5.45678 5.7027214,0.88274 6.5099774,-1.65974 6.643934,-5.31072 16.523848,-2.27656 24.147474,-0.52708 12.315882,6.60182 21.614607,18.96485 35.628246,22.67279 23.031065,1.17188 46.150472,-2.49767 69.002102,-5.2063 21.24536,-4.64854 42.70481,-8.47366 63.87776,-13.72714 12.5723,-2.51325 25.72282,-2.33287 37.50379,-7.99522 14.30178,-2.86755 29.084,-4.40849 43.14752,-8.7052 15.74437,-2.69066 31.8946,-5.35792 47.74544,-5.90721 28.26904,5.31962 57.42937,3.13328 86.0175,5.94366 11.42891,-0.0856 22.3088,3.45494 33.50872,4.68482 35.72113,1.91632 71.59551,-0.70519 107.1679,-2.05224 15.39926,-0.16171 29.3357,6.30833 44.08023,9.14081 37.2509,3.92523 74.78118,1.73056 111.93113,-1.90215 24.70605,-1.38517 49.74674,0.50751 74.33496,-1.36295 23.8775,-5.96089 47.75692,-14.25826 72.72087,-12.14177 9.44375,-0.6897 18.49816,1.66391 27.41648,4.26428 24.88809,2.64695 50.31655,0.56175 74.82269,6.06421 45.23544,1.59138 90.66844,2.62488 135.85444,-0.54951 3.631,-1.09132 12.3224,0.0851 12.0695,-5.28761 -6.5668,-8.56139 -7.0626,-20.63075 -14.0208,-28.57156 -6.7459,-12.73436 -17.303,-23.21217 -24.5765,-35.74039 -14.4929,-18.29727 -32.3379,-33.6526 -46.4109,-52.31252 -8.017,-10.13001 -19.8897,-15.34402 -28.1637,-25.24252 -10.82416,-10.53743 -21.27701,-21.54028 -29.15453,-34.44379 -8.88317,-9.75705 -17.49784,-19.73621 -25.55079,-30.1581 -13.32761,-11.55769 -22.47663,-26.94027 -32.82464,-40.98595 -2.41198,-4.27213 -2.66059,-9.93757 -6.87444,-12.84332 -4.62313,-8.80542 -8.89053,-17.79205 -15.8845,-25.00921 -8.19845,-11.10008 -13.40536,-24.33419 -22.8137,-34.38242 -4.93435,-9.50749 -14.02719,-15.78802 -18.06084,-25.89412 -8.54953,-11.16159 -20.75228,-18.56801 -29.37423,-29.72579 -15.35203,-14.17381 -28.15394,-30.56528 -42.26644,-45.8535 -1.67274,-1.2922 -3.15159,-3.68602 -5.48378,-3.73477 z"
       id="path1902"
       transform="scale(0.26458333)" />
  </g>
</svg>
