<?xml version="1.0" encoding="UTF-8" standalone="no"?>
<!-- Created with Inkscape (http://www.inkscape.org/) -->

<svg
   width="180mm"
   height="180mm"
   viewBox="0 0 180 180"
   version="1.1"
   id="svg5"
   inkscape:version="1.1.2 (08b2f3d93c, 2022-04-05)"
   sodipodi:docname="sun_moon.svg"
   xmlns:inkscape="http://www.inkscape.org/namespaces/inkscape"
   xmlns:sodipodi="http://sodipodi.sourceforge.net/DTD/sodipodi-0.dtd"
   xmlns="http://www.w3.org/2000/svg"
   xmlns:svg="http://www.w3.org/2000/svg">
  <sodipodi:namedview
     id="namedview7"
     pagecolor="#505050"
     bordercolor="#ffffff"
     borderopacity="1"
     inkscape:pageshadow="0"
     inkscape:pageopacity="0"
     inkscape:pagecheckerboard="1"
     inkscape:document-units="mm"
     showgrid="false"
     fit-margin-top="0"
     fit-margin-left="0"
     fit-margin-right="0"
     fit-margin-bottom="0"
     inkscape:zoom="0.69664703"
     inkscape:cx="27.273496"
     inkscape:cy="369.62764"
     inkscape:window-width="1920"
     inkscape:window-height="1016"
     inkscape:window-x="0"
     inkscape:window-y="0"
     inkscape:window-maximized="1"
     inkscape:current-layer="layer1" />
  <defs
     id="defs2" />
  <g
     inkscape:label="Layer 1"
     inkscape:groupmode="layer"
     id="layer1"
     transform="translate(-62.785309,-20.38916)">
    <circle
       style="fill:#ffffff;stroke-width:1.2"
       id="path1069"
       cx="152.78531"
       cy="110.38916"
       r="90" />
    <path
       style="fill:#ff5555;stroke-width:6.51038"
       d="M 338.1992,-0.20185976 C 254.68539,-0.50449146 172.07876,32.199173 110.63221,88.593917 34.564293,156.78739 -6.8367687,260.80899 0.31478882,362.58475 6.3682399,469.49922 67.20581,571.10081 157.87395,627.84273 c 56.21481,35.06286 122.70966,55.10173 189.22643,52.14976 68.32403,0.36306 135.72908,-23.63359 191.25287,-62.85292 C 629.13293,553.19861 684.69774,442.22248 680.29468,331.13462 678.97588,213.55991 609.92652,99.916128 507.02527,43.356539 455.78981,14.309048 397.12207,-0.97746858 338.1992,-0.20185976 Z"
       id="path993"
       transform="matrix(0.26458333,0,0,0.26458333,62.785309,20.38916)" />
  </g>
</svg>
